<svg width="36" height="36" viewBox="0 0 36 36" fill="none" xmlns="http://www.w3.org/2000/svg">
<path fill-rule="evenodd" clip-rule="evenodd" d="M18.6778 25.6054H19.802V29.1683H18.6778V25.6054ZM17.506 0H16.7142C16.0175 0.0950109 15.6216 0 14.7506 0.237527C14.1647 0.364208 13.5472 0.475054 12.9613 0.649241C12.1302 0.876363 11.3198 1.173 10.5385 1.53601C9.79864 1.86253 9.08408 2.24362 8.40075 2.67614C7.72829 3.08824 7.08299 3.54312 6.46886 4.03796L6.18384 4.29132L5.47126 4.94057C5.27249 5.09963 5.09191 5.28019 4.93285 5.47896L3.77689 6.80911L3.08014 7.75922C2.56398 8.54694 2.09853 9.36675 1.68664 10.2137C1.18257 11.2238 0.789688 12.2857 0.514852 13.3807C0.19557 14.6498 0.0254999 15.9518 0.00811534 17.2603C-0.0405647 18.8595 0.129938 20.4579 0.514852 22.0109C0.806916 23.0962 1.18826 24.1554 1.65498 25.1779C2.11444 26.1441 2.64367 27.0756 3.2385 27.9649L3.69771 28.5666C3.77688 28.6616 3.85606 28.7725 3.95107 28.8675C4.02383 28.9777 4.10314 29.0835 4.18859 29.1842L4.45779 29.4692C4.92177 29.9965 5.41895 30.4937 5.94629 30.9577L6.7064 31.5911C8.06625 32.6822 9.5822 33.563 11.2036 34.2039C11.7261 34.4098 12.2487 34.5998 12.7871 34.774C14.3335 35.2122 15.9305 35.4464 17.5376 35.4707H17.9968C19.2717 35.4473 20.5404 35.2881 21.7814 34.9957C22.7732 34.7459 23.7468 34.4285 24.6951 34.0456L26.1995 33.3013C26.9099 32.9024 27.5972 32.4636 28.258 31.987L28.5431 31.7653L30.9817 29.4692L31.6151 28.725C33.0768 26.8717 34.1536 24.7452 34.7821 22.4701C35.0885 21.3949 35.2848 20.2913 35.368 19.1764V17.5928C35.368 17.2761 35.368 16.8328 35.368 16.5319C35.285 14.9456 34.9812 13.3787 34.4654 11.8764C34.4654 11.6072 34.2754 11.3696 34.1804 11.0688C33.7871 10.0433 33.2883 9.0615 32.6919 8.13926C32.5554 7.90149 32.402 7.67392 32.2326 7.45835C31.8583 6.90654 31.4512 6.37775 31.0133 5.87484L30.2057 5.00391C28.6404 3.49351 26.8169 2.27605 24.8218 1.40933L24.3626 1.26681C23.8485 1.04482 23.3194 0.859613 22.7791 0.712581C22.1853 0.538388 21.5827 0.395673 20.9739 0.285033C20.6572 0.285033 20.2771 0.174187 19.9921 0.142516L18.9628 0C18.8203 0 18.4244 0 18.0127 0H17.506ZM9.71507 25.7479V23.9427H10.8394C10.8394 24.0219 10.8394 26.318 10.8394 26.603C10.8092 27.4602 10.8516 28.3183 10.966 29.1683H9.87343L9.79425 28.82C9.6022 29.0352 9.3474 29.1848 9.06582 29.2475C8.7251 29.3183 8.37027 29.262 8.06822 29.0892C6.91226 28.3924 7.03892 25.6529 8.79663 25.5263C9.1182 25.505 9.43861 25.5823 9.71507 25.7479ZM14.8615 27.6798H12.6446C12.6313 27.7756 12.6371 27.8731 12.6619 27.9666C12.6866 28.06 12.7297 28.1477 12.7887 28.2243C12.8476 28.301 12.9213 28.3651 13.0053 28.413C13.0893 28.4609 13.182 28.4916 13.278 28.5033C13.4986 28.5345 13.7225 28.5345 13.943 28.5033C14.1086 28.4672 14.2685 28.4086 14.4181 28.3291C14.5562 28.5497 14.6728 28.783 14.7665 29.0258C14.2748 29.314 13.6972 29.4195 13.1353 29.3239C12.5735 29.2284 12.0633 28.9378 11.6945 28.5033C11.4653 28.1879 11.3387 27.8097 11.3318 27.42C11.3249 27.0302 11.4381 26.6478 11.6559 26.3245C11.8737 26.0012 12.1857 25.7527 12.5495 25.6128C12.9133 25.4728 13.3114 25.4481 13.6897 25.5421C14.6715 25.7954 14.8615 26.6505 14.8615 27.6798ZM25.8194 29.1683H24.6951V25.6054H25.7719V26.0171C25.9051 25.8621 26.0704 25.738 26.2563 25.6532C26.4422 25.5684 26.6444 25.5251 26.8487 25.5263C27.0585 25.4999 27.2713 25.5409 27.4563 25.6434C27.6413 25.7459 27.789 25.9045 27.878 26.0963C28.0001 27.1155 28.0319 28.1435 27.973 29.1683H26.8804C26.8804 28.8991 26.8804 26.9514 26.8804 26.7456C26.7853 26.2072 26.1045 26.4605 25.8828 26.7456C25.8342 27.0072 25.8342 27.2756 25.8828 27.5373L25.8194 29.1683ZM21.6864 28.3449C21.9873 28.6616 23.3808 28.3449 23.8558 28.8675C23.9629 29.0127 24.0351 29.1806 24.0666 29.3582C24.0981 29.5359 24.0882 29.7184 24.0377 29.8916C23.9871 30.0647 23.8972 30.2239 23.775 30.3566C23.6529 30.4894 23.5017 30.5921 23.3333 30.6568C22.5415 31.0527 20.4038 31.1636 20.4513 29.9443C20.4497 29.8136 20.4825 29.6848 20.5464 29.5708C20.6103 29.4569 20.7031 29.3617 20.8155 29.295C20.8744 29.2323 20.938 29.1741 21.0055 29.1208C20.9018 29.0473 20.8213 28.9456 20.7735 28.8277C20.7258 28.7098 20.7129 28.5807 20.7363 28.4558C20.7363 28.0757 21.0372 27.9965 21.1322 27.8699C20.9371 27.7753 20.7735 27.6263 20.6611 27.4409C20.5487 27.2554 20.4924 27.0415 20.4988 26.8247C20.4988 25.7321 21.6231 25.4154 22.5257 25.5579C22.7832 25.592 23.0441 25.592 23.3016 25.5579H24.1251V26.2705H23.6658C23.7763 26.5667 23.7763 26.8928 23.6658 27.1889C23.5101 27.5107 23.2501 27.7704 22.9281 27.9256C22.6061 28.0809 22.241 28.1226 21.8923 28.044C21.7181 28.0757 21.6231 28.0915 21.6706 28.3449H21.6864ZM15.6374 28.1866C15.8763 28.3573 16.1537 28.4662 16.445 28.5033C16.6062 28.5196 16.7682 28.4805 16.9042 28.3924C17.3159 27.949 15.7324 27.949 15.3207 27.1573C15.2022 26.8517 15.2022 26.5128 15.3207 26.2072C15.4967 25.9615 15.7393 25.7713 16.0199 25.6591C16.3005 25.5468 16.6073 25.5172 16.9042 25.5738C17.1933 25.6104 17.4727 25.7018 17.7276 25.843L17.3951 26.5714C17.1029 26.4358 16.7828 26.3707 16.4608 26.3814C16.2866 26.3814 16.1441 26.4764 16.1758 26.6822C16.2075 26.8881 17.6326 26.9673 17.7593 27.9015C18.1394 29.6592 15.4791 29.485 15.0198 28.9783C15.0609 28.8445 15.1194 28.7167 15.194 28.5983C15.4791 28.5033 15.5424 28.2341 15.6216 28.1866H15.6374ZM19.1528 23.9744C19.3145 23.9429 19.4821 23.9769 19.6187 24.069C19.7553 24.1611 19.8497 24.3036 19.8812 24.4653C19.9127 24.627 19.8787 24.7946 19.7867 24.9312C19.6946 25.0678 19.552 25.1622 19.3903 25.1937C19.3103 25.2104 19.2277 25.2111 19.1474 25.1958C19.0671 25.1805 18.9905 25.1496 18.9221 25.1047C18.8538 25.0599 18.7949 25.002 18.7489 24.9344C18.7029 24.8668 18.6706 24.7908 18.654 24.7107C18.6374 24.6307 18.6367 24.5481 18.6519 24.4678C18.6672 24.3875 18.6982 24.3109 18.743 24.2425C18.7879 24.1742 18.8457 24.1153 18.9133 24.0693C18.9809 24.0233 19.0569 23.991 19.137 23.9744H19.1528ZM3.19099 21.2033H24.3626C24.7585 21.2033 32.5018 21.2033 32.6919 21.2033V21.7417H3.19099V21.2033ZM4.14109 19.1605C4.58447 17.8462 5.0437 16.0885 5.48709 14.6633L5.93047 13.1748H8.7333L10.4593 19.1922H8.11573L7.94154 18.3371H6.67472C6.56388 18.3371 6.56388 18.9388 6.45303 19.1922L4.14109 19.1605ZM30.6966 19.0022C30.1416 19.1698 29.5661 19.2603 28.9864 19.2714C28.4793 19.3045 27.9731 19.1926 27.5272 18.9486C27.0814 18.7046 26.7142 18.3387 26.4687 17.8937C26.2745 17.3403 26.199 16.7522 26.247 16.1677C26.1904 15.5855 26.2774 14.9983 26.5003 14.4575C26.7437 13.9881 27.1238 13.6037 27.5903 13.3549C28.0568 13.1061 28.5878 13.0046 29.1131 13.064C29.6934 13.0685 30.2697 13.1593 30.8233 13.3332L30.4591 15.2017C29.9989 15.0855 29.524 15.0374 29.0498 15.0592C28.5272 15.1859 28.5747 15.6451 28.5747 16.1835C28.5747 16.7219 28.5747 17.1811 29.0973 17.2603C29.5856 17.2276 30.0719 17.1694 30.5541 17.0861L30.6966 19.0022ZM12.6287 19.6514C12.6287 19.6514 12.6287 19.6514 12.6287 19.5564V12.5573C12.6287 12.0347 12.6287 5.79566 12.6287 5.47896C14.909 5.47896 17.2367 5.47896 19.5012 5.47896C20.5192 5.38283 21.5449 5.55195 22.4782 5.96985C22.8556 6.15491 23.1825 6.42884 23.4308 6.7681C23.679 7.10736 23.8412 7.50181 23.9034 7.91757C24.0548 8.48882 24.0692 9.08775 23.9454 9.66561C23.8215 10.2435 23.563 10.7839 23.1908 11.243C23.0641 11.338 22.9374 11.4646 22.7949 11.5597C22.648 11.6458 22.4945 11.7199 22.3357 11.7813C22.683 11.8427 23.0095 11.9896 23.2858 12.2089C23.5357 12.3964 23.7502 12.627 23.9192 12.8898C24.5051 14.3539 24.5722 15.9745 24.1092 17.482C23.9332 18.1437 23.5075 18.7113 22.9216 19.0655C21.3665 19.627 19.7004 19.8115 18.0602 19.6039C16.3025 19.6197 14.4815 19.6672 12.6921 19.6197L12.6287 19.6514Z" fill="white"/>
<path fill-rule="evenodd" clip-rule="evenodd" d="M17.6965 16.1834C18.1657 16.2164 18.6367 16.2164 19.1059 16.1834C19.6759 15.9142 19.6918 14.4416 19.1059 14.2357C18.6419 14.2033 18.1763 14.2033 17.7124 14.2357L17.6965 16.1834Z" fill="white"/>
<path fill-rule="evenodd" clip-rule="evenodd" d="M17.6965 10.7203C18.4725 10.7203 19.0584 10.8628 19.1059 9.78598C19.1534 8.70919 18.4725 8.88338 17.6965 8.91505V10.7203Z" fill="white"/>
<path fill-rule="evenodd" clip-rule="evenodd" d="M9.03442 26.3814C8.5752 26.4764 8.46436 26.9673 8.46436 27.4898C8.46436 28.0124 8.63854 28.4558 9.17693 28.3924C9.27978 28.3885 9.38001 28.3589 9.4685 28.3063C9.557 28.2538 9.63094 28.18 9.68364 28.0916C9.71693 27.8234 9.71693 27.5521 9.68364 27.284C9.68364 27.094 9.68364 26.6506 9.60446 26.5239C9.43385 26.4183 9.23463 26.3685 9.03442 26.3814Z" fill="white"/>
<path fill-rule="evenodd" clip-rule="evenodd" d="M21.9719 26.2393C21.6552 26.2393 21.5127 26.5877 21.5602 26.9677C21.5729 27.0488 21.6039 27.1259 21.6509 27.1932C21.698 27.2604 21.7597 27.316 21.8316 27.3558C21.9034 27.3955 21.9833 27.4183 22.0653 27.4224C22.1472 27.4265 22.229 27.4118 22.3045 27.3794C22.4332 27.3178 22.5359 27.2125 22.5941 27.0822C22.6524 26.9519 22.6624 26.8051 22.6225 26.6681C22.5825 26.5311 22.4951 26.4127 22.376 26.3342C22.2568 26.2556 22.1136 26.222 21.9719 26.2393Z" fill="white"/>
<path fill-rule="evenodd" clip-rule="evenodd" d="M22.9378 29.8487C23.112 29.4369 22.5736 29.4369 22.2569 29.4053H21.7185C21.6077 29.4053 21.5126 29.5795 21.481 29.722C21.3859 30.4662 22.7795 30.292 22.9378 29.8487Z" fill="white"/>
<path fill-rule="evenodd" clip-rule="evenodd" d="M12.5974 26.9198H13.7692C13.7692 26.5081 13.6267 26.2389 13.1991 26.2706C12.7716 26.3023 12.6449 26.6031 12.5974 26.9198Z" fill="white"/>
<path fill-rule="evenodd" clip-rule="evenodd" d="M6.9126 16.8645H7.6727L7.34015 15.281L6.9126 16.8645Z" fill="white"/>
</svg>
