<svg width="61" height="61" viewBox="0 0 61 61" fill="none" xmlns="http://www.w3.org/2000/svg">
<path d="M22.6292 13.7742H21.6453C18.3828 13.7742 15.26 15.2746 13.2174 17.8071C10.1035 18.5587 7.87109 21.3706 7.87109 24.5968C7.87109 28.1436 9.44627 31.4711 12.1913 33.7251L12.4638 33.9484H12.9341C12.8426 33.4683 12.7904 32.9744 12.7904 32.4677V27.8465C12.7904 26.595 13.8048 25.5806 15.0563 25.5806C15.504 25.5806 15.9408 25.7134 16.3127 25.9614L18.6937 27.5484H24.5969C26.7703 27.5484 28.5324 29.3105 28.5324 31.4838V32.4677C28.5324 32.9744 28.4802 33.4683 28.3887 33.9484H28.859L29.1316 33.7251C31.8766 31.4711 33.4517 28.1436 33.4517 24.5968C33.4517 18.6296 28.5963 13.7742 22.6292 13.7742Z" fill="#0D7834"/>
<path d="M35.4194 38.371V42.3065H39.3549V47.2258H57.0646V38.371H35.4194Z" fill="#0D7834"/>
<path d="M56.0807 5.90323H51.1613C51.1613 2.6476 48.5137 0 45.2581 0C42.0025 0 39.3549 2.6476 39.3549 5.90323H34.4355C31.723 5.90323 29.5162 8.11005 29.5162 10.8226V16.2545C30.2649 16.8744 30.9241 17.5965 31.4839 18.3935V10.8226C31.4839 9.19526 32.8082 7.87097 34.4355 7.87097H39.6992C40.077 8.93552 40.749 9.85839 41.6217 10.5441C37.9932 11.9934 35.4194 15.5373 35.4194 19.6774V21.6452H55.0968V19.6774C55.0968 15.5373 52.523 11.9934 48.8945 10.5441C49.7672 9.85839 50.4392 8.93552 50.817 7.87097H56.0807C57.708 7.87097 59.0323 9.19526 59.0323 10.8226V20.6613C59.0323 22.2886 57.708 23.6129 56.0807 23.6129H47.7483L43.1359 29.1472C42.9421 29.3813 42.6548 29.5161 42.3488 29.5161C41.7831 29.5161 41.3226 29.0557 41.3226 28.49V23.6129H33.4015C33.431 23.9376 33.4517 24.2642 33.4517 24.5968C33.4517 24.9274 33.4241 25.254 33.3975 25.5806H39.3549V28.49C39.3549 30.1409 40.6979 31.4839 42.3488 31.4839C43.2402 31.4839 44.0794 31.0913 44.6491 30.4065L48.6712 25.5806H56.0807C58.7932 25.5806 61 23.3738 61 20.6613V10.8226C61 8.11005 58.7932 5.90323 56.0807 5.90323ZM53.1291 19.6774H37.3871C37.3871 15.3376 40.9183 11.8065 45.2581 11.8065C49.598 11.8065 53.1291 15.3376 53.1291 19.6774ZM45.2581 9.83871C43.0877 9.83871 41.3226 8.07364 41.3226 5.90323C41.3226 3.73281 43.0877 1.96774 45.2581 1.96774C47.4285 1.96774 49.1936 3.73281 49.1936 5.90323C49.1936 8.07364 47.4285 9.83871 45.2581 9.83871Z" fill="#1E1D1C"/>
<path d="M19.6775 55.0968H21.6452V57.0645H19.6775V55.0968Z" fill="#1E1D1C"/>
<path d="M19.6775 51.1613H21.6452V53.129H19.6775V51.1613Z" fill="#1E1D1C"/>
<path d="M56.0806 33.4516H36.4032C33.6907 33.4516 31.4839 35.6585 31.4839 38.371V44.1325C31.476 44.1306 31.4691 44.1276 31.4622 44.1266L24.5968 42.5111V40.3879C27.5071 38.9357 29.5161 35.9349 29.5161 32.4678V31.4839C29.5161 28.7714 27.3093 26.5645 24.5968 26.5645H18.9917L16.8586 25.1429C16.3234 24.7857 15.6996 24.5968 15.0562 24.5968C13.2636 24.5968 11.8065 26.0539 11.8065 27.8465V32.4678C11.8065 35.9359 13.8155 38.9357 16.7258 40.3879V42.5111L9.86036 44.1266C4.05453 45.4923 0 50.6123 0 56.5765V61H41.3226V56.5765C41.3226 54.6491 40.8936 52.8132 40.1252 51.1613H43.8128L47.8348 55.9862C48.4045 56.672 49.2437 57.0645 50.1351 57.0645C51.786 57.0645 53.129 55.7216 53.129 54.0706V51.1613H56.0806C58.7932 51.1613 61 48.9545 61 46.242V38.371C61 35.6585 58.7932 33.4516 56.0806 33.4516ZM26.1651 44.9019L24.1835 50.2817L21.8911 47.2258L24.0133 44.3952L26.1651 44.9019ZM23.3728 52.4797L20.9594 59.0323H20.3642L17.9507 52.4797L20.6613 48.865L23.3728 52.4797ZM13.7742 32.4678V27.8465C13.7742 27.1391 14.3488 26.5645 15.0562 26.5645C15.31 26.5645 15.556 26.6393 15.7675 26.78L18.3954 28.5323H24.5968C26.2241 28.5323 27.5484 29.8566 27.5484 31.4839V32.4678C27.5484 36.2655 24.458 39.3549 20.6613 39.3549C16.8645 39.3549 13.7742 36.2655 13.7742 32.4678ZM20.6613 41.3226C21.3382 41.3226 21.9954 41.239 22.629 41.0944V42.9627L20.6613 45.5867L18.6935 42.9627V41.0944C19.3272 41.239 19.9844 41.3226 20.6613 41.3226ZM17.3092 44.3952L19.4315 47.2258L17.14 50.2808L15.1585 44.9009L17.3092 44.3952ZM1.96774 56.5765C1.96774 51.5293 5.3985 47.1973 10.312 46.0413L13.2272 45.3555L18.2665 59.0323H9.83871V53.1291H7.87097V59.0323H1.96774V56.5765ZM39.3548 59.0323H33.4516V53.1291H31.4839V59.0323H23.056L28.0944 45.3555L31.0096 46.0413C35.9241 47.1983 39.3548 51.5303 39.3548 56.5765V59.0323ZM59.0323 46.242C59.0323 47.8693 57.708 49.1936 56.0806 49.1936H51.1613V54.0706C51.1613 54.6363 50.7008 55.0968 50.1351 55.0968C49.8291 55.0968 49.5418 54.962 49.347 54.7278L44.7356 49.1936H38.981C37.6144 47.2573 35.7165 45.7087 33.4516 44.7711V38.371C33.4516 36.7437 34.7759 35.4194 36.4032 35.4194H56.0806C57.708 35.4194 59.0323 36.7437 59.0323 38.371V46.242Z" fill="#1E1D1C"/>
<path d="M35.4194 37.3871H57.0646V39.3548H35.4194V37.3871Z" fill="#1E1D1C"/>
<path d="M35.4194 41.3226H57.0646V43.2904H35.4194V41.3226Z" fill="#1E1D1C"/>
<path d="M39.3547 45.2581H53.1289V47.2258H39.3547V45.2581Z" fill="#1E1D1C"/>
<path d="M55.0969 45.2581H57.0647V47.2258H55.0969V45.2581Z" fill="#1E1D1C"/>
</svg>
