<svg width="21" height="16" viewBox="0 0 21 16" fill="none" xmlns="http://www.w3.org/2000/svg">
<path fill-rule="evenodd" clip-rule="evenodd" d="M18.375 16H2.625C1.17775 16 0 14.8036 0 13.3333V2.66667C0 1.19644 1.17775 0 2.625 0H18.375C19.8223 0 21 1.19644 21 2.66667V13.3333C21 14.8036 19.8223 16 18.375 16ZM2.625 14.2222H18.375C18.8571 14.2222 19.25 13.824 19.25 13.3333V2.84711L11.0495 9.57956C10.8894 9.712 10.6951 9.77778 10.5 9.77778C10.3049 9.77778 10.1106 9.712 9.9505 9.57956L1.75 2.84711V13.3333C1.75 13.824 2.14287 14.2222 2.625 14.2222ZM17.7695 1.77778H3.2305L10.5 7.74578L17.7695 1.77778Z" fill="#0D7834"/>
</svg>
