<svg width="12" height="20" viewBox="0 0 12 20" fill="none" xmlns="http://www.w3.org/2000/svg">
<path d="M1.6 0H10.4C10.8243 0 11.2313 0.175595 11.5314 0.488155C11.8314 0.800716 12 1.22464 12 1.66667V18.3333C12 18.7754 11.8314 19.1993 11.5314 19.5118C11.2313 19.8244 10.8243 20 10.4 20H1.6C1.17565 20 0.768687 19.8244 0.468629 19.5118C0.168571 19.1993 0 18.7754 0 18.3333V1.66667C0 1.22464 0.168571 0.800716 0.468629 0.488155C0.768687 0.175595 1.17565 0 1.6 0V0ZM4.8 17.0833C4.80005 17.2475 4.83115 17.4101 4.89153 17.5618C4.9519 17.7135 5.04037 17.8513 5.15187 17.9674C5.26338 18.0835 5.39574 18.1755 5.5414 18.2383C5.68706 18.3011 5.84316 18.3334 6.0008 18.3333C6.15844 18.3333 6.31452 18.3009 6.46014 18.238C6.60576 18.1751 6.73806 18.083 6.84949 17.9668C6.96092 17.8506 7.0493 17.7128 7.10958 17.561C7.16986 17.4093 7.20085 17.2467 7.2008 17.0825C7.20069 16.7509 7.07412 16.4329 6.84893 16.1984C6.62373 15.964 6.31837 15.8324 6 15.8325C5.68163 15.8326 5.37635 15.9645 5.15131 16.199C4.92626 16.4336 4.79989 16.7517 4.8 17.0833ZM1.6 14.1667H10.4V2.5H1.6V14.1667Z" fill="#0D7834"/>
</svg>
