<svg width="48" height="58" viewBox="0 0 48 58" fill="none" xmlns="http://www.w3.org/2000/svg">
<path d="M47.7855 23.2273C44.9817 18.5552 43.5001 13.2048 43.5001 7.75342V4.5H42.0001C38.5665 4.5 36.0001 2.91577 36.0001 1.5V0H12.0001V1.5C12.0001 2.91577 9.43365 4.5 6.00006 4.5H4.50006V7.75342C4.50006 13.2048 3.01837 18.5552 0.214661 23.2273L6.10352e-05 23.5847V24C6.10352e-05 36.5852 6.89874 48.0798 18.0001 53.9985L24.0001 57.2007L30.0001 54C41.1014 48.0798 48.0001 36.5852 48.0001 24V23.5847L47.7855 23.2273ZM34.5001 32.5803C34.5001 39.0432 30.2147 44.7239 24.0001 46.5C17.7855 44.7239 13.5001 39.0432 13.5001 32.5803V25.5H34.5001V32.5803Z" fill="#363432"/>
</svg>
