<svg width="93" height="93" viewBox="0 0 93 93" fill="none" xmlns="http://www.w3.org/2000/svg">
<path d="M73.5 75H46.5V51H73.5V75Z" fill="#0D7834"/>
<path d="M55.5 30H28.5V9H55.5V30Z" fill="#0D7834"/>
<path d="M58.5 15V33H28.5V52.5H43.5V48H73.5V15H58.5Z" fill="#0D7834"/>
<path d="M90.4545 6L85.611 2.772C82.893 0.9585 79.7265 0 76.4595 0H58.5C56.8455 0 55.5 1.3455 55.5 3H22.5V57H16.5405C13.272 57 10.107 57.9585 7.3875 59.772L2.5455 63H0V88.5H2.646L8.796 91.575C10.659 92.5065 12.7485 93 14.8335 93H43.5C45.981 93 48 90.981 48 88.5C48 87.9075 47.8785 87.345 47.67 86.826C49.5825 86.307 51 84.5745 51 82.5C51 81.972 50.892 81.471 50.724 81H79.5V34.434C81.1335 34.2705 82.737 33.8085 84.2055 33.075L90.3555 30H93V6H90.4545ZM48 82.5C48 83.3265 47.328 84 46.5 84H43.5H28.5V87H43.5C44.328 87 45 87.6735 45 88.5C45 89.3265 44.328 90 43.5 90H14.8335C13.212 90 11.5875 89.6175 10.137 88.8915L3.354 85.5H3V66H3.4545L9.0525 62.268C11.2785 60.7845 13.8675 60 16.5405 60H34.5C34.5 62.481 32.481 64.5 30 64.5H23.379L21.0765 66.8025C19.6575 68.22 17.775 69 15.7725 69H15V72H15.7725C18.261 72 20.6145 71.136 22.5 69.5565V81H28.5H46.5C47.328 81 48 81.6735 48 82.5ZM76.5 78H46.5H28.5H25.5V67.5H30C34.1355 67.5 37.5 64.1355 37.5 60C37.5 58.3455 36.1545 57 34.5 57H25.5V6H56.136C57.297 8.6445 59.9325 10.5 63 10.5H66.879L69.1815 12.804C70.5975 14.22 72.4815 15 74.4855 15H76.5V78ZM90 27H89.646L82.8645 30.3915C81.813 30.918 80.6685 31.2645 79.5015 31.4145V12H74.487C73.284 12 72.153 11.532 71.304 10.683L68.121 7.5H63C60.519 7.5 58.5 5.481 58.5 3H76.4595C79.1325 3 81.723 3.7845 83.9475 5.268L89.5455 9H90V27Z" fill="white"/>
<path d="M57.0001 65.379L55.0606 63.4395L52.9396 65.5605L57.0001 69.621L68.5606 58.0605L66.4396 55.9395L57.0001 65.379Z" fill="white"/>
<path d="M28.5 72H43.5V75H28.5V72Z" fill="white"/>
<path d="M40.5 60H43.5V63H40.5V60Z" fill="white"/>
<path d="M40.5 66H43.5V69H40.5V66Z" fill="white"/>
<path d="M58.5 27H73.5V30H58.5V27Z" fill="white"/>
<path d="M58.5 21H73.5V24H58.5V21Z" fill="white"/>
<path d="M58.5 15H61.5V18H58.5V15Z" fill="white"/>
<path d="M64.5 15H73.5V18H64.5V15Z" fill="white"/>
<path d="M28.5 33H31.5V36H28.5V33Z" fill="white"/>
<path d="M34.5 33H73.5V36H34.5V33Z" fill="white"/>
<path d="M28.5 39H73.5V42H28.5V39Z" fill="white"/>
<path d="M28.5 45H31.5V48H28.5V45Z" fill="white"/>
<path d="M40.5 45H43.5V48H40.5V45Z" fill="white"/>
<path d="M34.5 45H37.5V48H34.5V45Z" fill="white"/>
<path d="M46.5 45H73.5V48H46.5V45Z" fill="white"/>
<path d="M28.5 51H43.5V54H28.5V51Z" fill="white"/>
</svg>
