<svg width="93" height="93" viewBox="0 0 93 93" fill="none" xmlns="http://www.w3.org/2000/svg">
<path d="M57 49.218V85.5C57 87.9807 54.9807 90 52.5 90C50.0193 90 48 87.9807 48 85.5V78H18V81H45V85.5C45 87.1948 45.5867 88.7432 46.5388 90H7.5C5.01929 90 3 87.9807 3 85.5V81H15V25.5C15 23.0193 17.0193 21 19.5 21H48.7332V18H19.5C15.3647 18 12 21.3647 12 25.5V78H0V85.5C0 89.6353 3.36475 93 7.5 93H52.5C56.6353 93 60 89.6353 60 85.5V49.218H57Z" fill="white"/>
<path d="M92.7855 23.2273C89.9817 18.5552 88.5001 13.2048 88.5001 7.75342V4.5H87.0001C83.5665 4.5 81.0001 2.91577 81.0001 1.5V0H57.0001V1.5C57.0001 2.91577 54.4337 4.5 51.0001 4.5H49.5001V7.75342C49.5001 13.2048 48.0184 18.5552 45.2147 23.2273L45.0001 23.5847V24C45.0001 36.5852 51.8987 48.0798 63.0001 53.9985L69.0001 57.2007L75.0001 54C86.1014 48.0798 93.0001 36.5852 93.0001 24V23.5847L92.7855 23.2273ZM79.5001 32.5803C79.5001 39.0432 75.2147 44.7239 69.0001 46.5C62.7855 44.7239 58.5001 39.0432 58.5001 32.5803V25.5H79.5001V32.5803Z" fill="#363432"/>
<path d="M78 24V15C78 10.0364 73.9636 6 69 6C64.0364 6 60 10.0364 60 15V24H57V32.5803C57 39.6753 61.7651 45.9932 68.5876 47.9429L69 48.0601L69.4124 47.9429C76.2349 45.9932 81 39.6753 81 32.5803V24H78ZM63 15C63 11.6909 65.6909 9 69 9C72.3091 9 75 11.6909 75 15V24H63V15ZM78 32.5803C78 38.2002 74.3203 43.2195 69 44.9326C63.6797 43.218 60 38.2002 60 32.5803V27H78V32.5803Z" fill="white"/>
<path d="M73.5 34.5C73.5 32.0193 71.4807 30 69 30C66.5193 30 64.5 32.0193 64.5 34.5C64.5 36.4526 65.7583 38.1028 67.5 38.7239V42H70.5V38.7239C72.2417 38.1028 73.5 36.4526 73.5 34.5ZM69 36C68.1738 36 67.5 35.3276 67.5 34.5C67.5 33.6724 68.1738 33 69 33C69.8262 33 70.5 33.6724 70.5 34.5C70.5 35.3276 69.8262 36 69 36Z" fill="white"/>
<path d="M27 75H18V57H27V75Z" fill="#363432"/>
<path d="M38.9999 75H29.9999V51H38.9999V75Z" fill="#363432"/>
<path d="M50.9999 75H41.9999V60H50.9999V75Z" fill="#363432"/>
<path d="M46.5 48C45.5793 48 44.7224 48.2805 44.0083 48.7573L38.7766 44.8337C38.9084 44.4089 39 43.9666 39 43.5C39 41.0193 36.9807 39 34.5 39C32.0193 39 30 41.0193 30 43.5C30 43.686 30.033 43.8647 30.0557 44.0457L25.6157 46.2664C24.8057 45.4863 23.7107 45 22.5 45C20.0193 45 18 47.0193 18 49.5C18 51.9807 20.0193 54 22.5 54C24.9807 54 27 51.9807 27 49.5C27 49.314 26.967 49.1353 26.9443 48.9558L31.3843 46.7358C32.1943 47.5137 33.2893 48 34.5 48C35.4207 48 36.2776 47.7195 36.9917 47.2441L42.2249 51.1692C42.0916 51.5925 42 52.0334 42 52.5C42 54.9807 44.0193 57 46.5 57C48.9807 57 51 54.9807 51 52.5C51 50.0193 48.9807 48 46.5 48ZM22.5 51C21.6738 51 21 50.3276 21 49.5C21 48.6724 21.6738 48 22.5 48C23.3262 48 24 48.6724 24 49.5C24 50.3276 23.3262 51 22.5 51ZM34.5 45C33.6738 45 33 44.3276 33 43.5C33 42.6724 33.6738 42 34.5 42C35.3262 42 36 42.6724 36 43.5C36 44.3276 35.3262 45 34.5 45ZM46.5 54C45.6738 54 45 53.3276 45 52.5C45 51.6724 45.6738 51 46.5 51C47.3262 51 48 51.6724 48 52.5C48 53.3276 47.3262 54 46.5 54Z" fill="white"/>
<path d="M18 24H21V27H18V24Z" fill="white"/>
<path d="M24.0001 24H42.0001V27H24.0001V24Z" fill="white"/>
<path d="M24.0001 30H42.0001V33H24.0001V30Z" fill="white"/>
<path d="M18 30H21V33H18V30Z" fill="white"/>
<path d="M39 84H42V87H39V84Z" fill="white"/>
<path d="M6.00006 84H36.0001V87H6.00006V84Z" fill="white"/>
</svg>
