<svg width="86" height="86" viewBox="0 0 86 86" fill="none" xmlns="http://www.w3.org/2000/svg">
<path d="M65.1936 36.0645C56.7808 36.0645 49.9355 29.2192 49.9355 20.8065C49.9355 12.3937 56.7808 5.5484 65.1936 5.5484C73.6063 5.5484 80.4516 12.3937 80.4516 20.8065C80.4516 29.2192 73.6063 36.0645 65.1936 36.0645Z" fill="#0D7834"/>
<path d="M55.4839 40.2258H80.4516V52.7096H55.4839V40.2258Z" fill="#0D7834"/>
<path d="M41.6129 27.7419H8.32259C6.79263 27.7419 5.5484 28.9862 5.5484 30.5161V44.3871C5.5484 45.9171 6.79263 47.1613 8.32259 47.1613H41.6129C43.1429 47.1613 44.3871 45.9171 44.3871 44.3871V30.5161C44.3871 28.9862 43.1429 27.7419 41.6129 27.7419ZM8.32259 44.3871V30.5161H41.6129L41.6143 44.3871H8.32259Z" fill="white"/>
<path d="M13.871 49.9355H8.32259C6.79263 49.9355 5.5484 51.1797 5.5484 52.7097V55.4839C5.5484 57.0138 6.79263 58.2581 8.32259 58.2581H13.871C15.4009 58.2581 16.6452 57.0138 16.6452 55.4839V52.7097C16.6452 51.1797 15.4009 49.9355 13.871 49.9355ZM8.32259 55.4839V52.7097H13.871L13.8724 55.4839H8.32259Z" fill="white"/>
<path d="M27.742 49.9355H22.1936C20.6636 49.9355 19.4194 51.1797 19.4194 52.7097V55.4839C19.4194 57.0138 20.6636 58.2581 22.1936 58.2581H27.742C29.2719 58.2581 30.5161 57.0138 30.5161 55.4839V52.7097C30.5161 51.1797 29.2719 49.9355 27.742 49.9355ZM22.1936 55.4839V52.7097H27.742L27.7433 55.4839H22.1936Z" fill="white"/>
<path d="M41.6129 49.9355H36.0645C34.5345 49.9355 33.2903 51.1797 33.2903 52.7097V55.4839C33.2903 57.0138 34.5345 58.2581 36.0645 58.2581H41.6129C43.1428 58.2581 44.3871 57.0138 44.3871 55.4839V52.7097C44.3871 51.1797 43.1428 49.9355 41.6129 49.9355ZM36.0645 55.4839V52.7097H41.6129L41.6143 55.4839H36.0645Z" fill="white"/>
<path d="M13.871 61.0323H8.32259C6.79263 61.0323 5.5484 62.2765 5.5484 63.8065V66.5807C5.5484 68.1106 6.79263 69.3549 8.32259 69.3549H13.871C15.4009 69.3549 16.6452 68.1106 16.6452 66.5807V63.8065C16.6452 62.2765 15.4009 61.0323 13.871 61.0323ZM8.32259 66.5807V63.8065H13.871L13.8724 66.5807H8.32259Z" fill="white"/>
<path d="M27.742 61.0323H22.1936C20.6636 61.0323 19.4194 62.2765 19.4194 63.8065V66.5807C19.4194 68.1106 20.6636 69.3549 22.1936 69.3549H27.742C29.2719 69.3549 30.5161 68.1106 30.5161 66.5807V63.8065C30.5161 62.2765 29.2719 61.0323 27.742 61.0323ZM22.1936 66.5807V63.8065H27.742L27.7433 66.5807H22.1936Z" fill="white"/>
<path d="M41.6129 61.0323H36.0645C34.5345 61.0323 33.2903 62.2765 33.2903 63.8065V66.5807C33.2903 68.1106 34.5345 69.3549 36.0645 69.3549H41.6129C43.1428 69.3549 44.3871 68.1106 44.3871 66.5807V63.8065C44.3871 62.2765 43.1428 61.0323 41.6129 61.0323ZM36.0645 66.5807V63.8065H41.6129L41.6143 66.5807H36.0645Z" fill="white"/>
<path d="M13.871 72.129H8.32259C6.79263 72.129 5.5484 73.3733 5.5484 74.9032V77.6774C5.5484 79.2074 6.79263 80.4516 8.32259 80.4516H13.871C15.4009 80.4516 16.6452 79.2074 16.6452 77.6774V74.9032C16.6452 73.3733 15.4009 72.129 13.871 72.129ZM8.32259 77.6774V74.9032H13.871L13.8724 77.6774H8.32259Z" fill="white"/>
<path d="M27.742 72.129H22.1936C20.6636 72.129 19.4194 73.3733 19.4194 74.9032V77.6774C19.4194 79.2074 20.6636 80.4516 22.1936 80.4516H27.742C29.2719 80.4516 30.5161 79.2074 30.5161 77.6774V74.9032C30.5161 73.3733 29.2719 72.129 27.742 72.129ZM22.1936 77.6774V74.9032H27.742L27.7433 77.6774H22.1936Z" fill="white"/>
<path d="M41.6129 72.129H36.0645C34.5345 72.129 33.2903 73.3733 33.2903 74.9032V77.6774C33.2903 79.2074 34.5345 80.4516 36.0645 80.4516H41.6129C43.1428 80.4516 44.3871 79.2074 44.3871 77.6774V74.9032C44.3871 73.3733 43.1428 72.129 41.6129 72.129ZM36.0645 77.6774V74.9032H41.6129L41.6143 77.6774H36.0645Z" fill="white"/>
<path d="M86 0H39.6516L22.1935 17.458V22.1935H6.93548C3.11126 22.1935 0 25.3048 0 29.129V79.0645C0 82.8887 3.11126 86 6.93548 86H43C46.3484 86 49.1504 83.6128 49.7954 80.4516H86V0ZM38.8387 4.73555V16.6452H26.9291L38.8387 4.73555ZM47.1613 79.0645C47.1613 81.3588 45.2943 83.2258 43 83.2258H6.93548C4.64123 83.2258 2.77419 81.3588 2.77419 79.0645V29.129C2.77419 26.8348 4.64123 24.9677 6.93548 24.9677H43C45.2943 24.9677 47.1613 26.8348 47.1613 29.129V79.0645ZM83.2258 77.6774H49.9355V29.129C49.9355 25.3048 46.8242 22.1935 43 22.1935H24.9677V19.4194H41.6129V2.77419H83.2258V77.6774Z" fill="white"/>
<path d="M65.1936 24.9677C64.4293 24.9677 63.8065 24.3449 63.8065 23.5806H61.0323C61.0323 25.3866 62.1961 26.9124 63.8065 27.4867V30.5161H66.5807V27.7419H69.3549V23.5806C69.3549 21.2864 67.4878 19.4193 65.1936 19.4193C64.4293 19.4193 63.8065 18.7965 63.8065 18.0322V16.6451H65.1936C65.9579 16.6451 66.5807 17.2679 66.5807 18.0322H69.3549C69.3549 16.2262 68.1911 14.7004 66.5807 14.1262V11.0967H63.8065V13.8709H61.0323V18.0322C61.0323 20.3265 62.8993 22.1935 65.1936 22.1935C65.9579 22.1935 66.5807 22.8163 66.5807 23.5806V24.9677H65.1936Z" fill="white"/>
<path d="M77.6774 49.9355H80.4516V52.7097H77.6774V49.9355Z" fill="white"/>
<path d="M72.129 49.9355H74.9032V52.7097H72.129V49.9355Z" fill="white"/>
<path d="M66.5806 49.9355H69.3548V52.7097H66.5806V49.9355Z" fill="white"/>
<path d="M61.0323 49.9355H63.8065V52.7097H61.0323V49.9355Z" fill="white"/>
<path d="M55.4839 49.9355H58.2581V52.7097H55.4839V49.9355Z" fill="white"/>
<path d="M55.4839 44.3871H80.4516V47.1613H55.4839V44.3871Z" fill="white"/>
<path d="M55.4839 38.8387H80.4516V41.6129H55.4839V38.8387Z" fill="white"/>
<path d="M11.0967 33.2903H13.8709V36.0645H11.0967V33.2903Z" fill="white"/>
<path d="M16.6451 33.2903H19.4193V36.0645H16.6451V33.2903Z" fill="white"/>
<path d="M22.1935 33.2903H24.9677V36.0645H22.1935V33.2903Z" fill="white"/>
<path d="M80.4516 55.4839H55.4839V74.9032H80.4516V55.4839ZM77.6774 72.129H58.2581V58.2581H77.6774V72.129Z" fill="white"/>
</svg>
