<svg width="95" height="95" viewBox="0 0 95 95" fill="none" xmlns="http://www.w3.org/2000/svg">
<path d="M24.5161 81.2097H70.4839V88.8709H24.5161V81.2097Z" fill="#363432"/>
<path d="M24.5161 79.6774H70.4839V82.7419H24.5161V79.6774Z" fill="white"/>
<path d="M81.2097 53.629H72.0162C66.9383 53.629 62.8226 49.5134 62.8226 44.4355V38.3065H90.4033V44.4355C90.4033 49.5134 86.2876 53.629 81.2097 53.629Z" fill="#363432"/>
<path d="M22.9838 53.629H13.7902C8.71233 53.629 4.59668 49.5134 4.59668 44.4355V38.3065H32.1773V44.4355C32.1773 49.5134 28.0617 53.629 22.9838 53.629Z" fill="#363432"/>
<path d="M30.0598 36.7742L21.2891 19.2344L18.5479 20.6058L26.6336 36.7742H10.1404L18.2246 20.6043L15.4834 19.2329L6.71429 36.7742H3.06445V44.4355C3.06445 50.3485 7.87728 55.1613 13.7903 55.1613H22.9838C28.8968 55.1613 33.7096 50.3485 33.7096 44.4355V36.7742H30.0598ZM30.6451 39.8387V42.9032H6.12897V39.8387H30.6451ZM22.9838 52.0968H13.7903C10.0914 52.0968 6.99623 49.4598 6.28373 45.9677H30.4903C29.7778 49.4598 26.6827 52.0968 22.9838 52.0968Z" fill="white"/>
<path d="M88.2857 36.7742L79.5151 19.2344L76.7739 20.6058L84.8596 36.7742H68.3664L76.4506 20.6043L73.7094 19.2329L64.9402 36.7742H61.2904V44.4355C61.2904 50.3485 66.1032 55.1613 72.0162 55.1613H81.2098C87.1227 55.1613 91.9356 50.3485 91.9356 44.4355V36.7742H88.2857ZM88.8711 39.8387V42.9032H64.3549V39.8387H88.8711ZM81.2098 52.0968H72.0162C68.3173 52.0968 65.2222 49.4598 64.5097 45.9677H88.7163C88.0038 49.4598 84.9086 52.0968 81.2098 52.0968Z" fill="white"/>
<path d="M38.3065 12.2581H4.59677C2.06242 12.2581 0 14.3205 0 16.8548C0 19.3892 2.06242 21.4516 4.59677 21.4516H38.3065V12.2581Z" fill="#363432"/>
<path d="M90.4032 12.2581H56.6935V21.4516H90.4032C92.9375 21.4516 94.9999 19.3892 94.9999 16.8548C94.9999 14.3205 92.9375 12.2581 90.4032 12.2581Z" fill="#363432"/>
<path d="M67.4194 85.8064H70.4839V88.8709H67.4194V85.8064Z" fill="white"/>
<path d="M24.5161 85.8064H64.3548V88.8709H24.5161V85.8064Z" fill="white"/>
<path d="M58.2257 58.2258V7.66129C58.2257 3.43685 54.7888 0 50.5644 0H44.4353C40.2109 0 36.7741 3.43685 36.7741 7.66129V58.2258H18.387V95H76.6128V58.2258H58.2257ZM39.8386 64.3548V18.3871H45.9676V64.3548H39.8386ZM52.9945 67.4194L47.4999 72.914L42.0052 67.4194H52.9945ZM55.1612 64.3548H49.0321V18.3871H55.1612V64.3548ZM44.4353 3.06452H50.5644C53.0987 3.06452 55.1612 5.12694 55.1612 7.66129V15.3226H39.8386V7.66129C39.8386 5.12694 41.901 3.06452 44.4353 3.06452ZM73.5483 91.9355H21.4515V61.2903H36.7741V66.5215L47.4999 77.2473L58.2257 66.5215V61.2903H73.5483V91.9355Z" fill="white"/>
<path d="M24.5161 64.3549H27.5806V67.4194H24.5161V64.3549Z" fill="white"/>
<path d="M30.6451 64.3549H33.7097V67.4194H30.6451V64.3549Z" fill="white"/>
<path d="M61.2904 64.3549H64.3549V67.4194H61.2904V64.3549Z" fill="white"/>
<path d="M67.4194 64.3549H70.4839V67.4194H67.4194V64.3549Z" fill="white"/>
</svg>
